<?xml version="1.0" encoding="UTF-8"?>
<svg width="100px" height="100px" viewBox="0 0 100 100" version="1.1" xmlns="http://www.w3.org/2000/svg" xmlns:xlink="http://www.w3.org/1999/xlink">
    <!-- Generator: Sketch 52.2 (67145) - http://www.bohemiancoding.com/sketch -->
    <title>ill_empty_state_wallet-address</title>
    <desc>Created with Sketch.</desc>
    <defs>
        <circle id="path-1" cx="45" cy="45" r="45"></circle>
        <rect id="path-3" x="0.45" y="0.297" width="26.1" height="22.95"></rect>
    </defs>
    <g id="ill_empty_state_wallet-address" stroke="none" stroke-width="1" fill="none" fill-rule="evenodd">
        <g transform="translate(5.000000, 5.000000)">
            <circle id="Oval" fill="#F2F2F2" fill-rule="nonzero" cx="45" cy="45" r="45"></circle>
            <g id="ill_empty-state_wallet-address">
                <g id="Clipped">
                    <mask id="mask-2" fill="white">
                        <use xlink:href="#path-1"></use>
                    </mask>
                    <g id="Oval"></g>
                    <g id="Group" mask="url(#mask-2)">
                        <g transform="translate(14.400000, 36.900000)" id="Shape">
                            <path d="M54.792,10.17 L54.792,6.633 C54.8136077,4.97740168 54.1741185,3.38153543 53.0152192,2.19898515 C51.85632,1.01643487 50.273697,0.34483975 48.618,0.333 L8.262,0.333 L3.6,0.621 L1.512,1.926 C1.962,0.882 0,4.896 0.531,6.498 C1.2096286,7.65112508 2.07313282,8.68489774 3.087,9.558 C3.663,9.846 11.187,10.359 11.187,10.359 L54.792,10.17 Z" stroke="none" fill="#D0D6E1" fill-rule="nonzero"></path>
                            <path d="M6.714,11.511 L56.034,11.511 C57.6905047,11.5228581 59.2740342,12.1941647 60.4343601,13.3764473 C61.5946861,14.5587299 62.2361933,16.154564 62.217,17.811 L62.2174186,48.69" stroke="#12326B" stroke-width="0.684" fill="none" stroke-linecap="square"></path>
                            <path d="M62.496,40.113 L52.902,40.113 C51.3886599,40.1011122 49.9420301,39.488515 48.8803765,38.4099831 C47.818723,37.3314511 47.2290181,35.8753393 47.241,34.362 C47.2266163,32.8471086 47.8152576,31.3886812 48.8771702,30.3081977 C49.9390828,29.2277143 51.3870869,28.6138793 52.902,28.602 L62.496,28.602" stroke="none" fill="#D0D6E1" fill-rule="nonzero"></path>
                            <path d="M62.271,17.856 L62.271,49.932" stroke="#12326B" stroke-width="0.684" fill="none" stroke-linecap="square"></path>
                            <path d="M54.576,34.362 C54.5810008,35.4122758 53.7362411,36.2691035 52.686,36.279 C51.6357589,36.2691035 50.7909992,35.4122758 50.796,34.362 C50.7814766,33.8497848 50.9735942,33.3532562 51.3290958,32.9842116 C51.6845975,32.615167 52.1735999,32.4046283 52.686,32.4 C53.1920402,32.4047514 53.6754642,32.6103436 54.0299128,32.9715435 C54.3843614,33.3327435 54.5807965,33.8199602 54.576,34.326 L54.576,34.362 Z" stroke="none" fill="#203569" fill-rule="nonzero"></path>
                            <path d="M0.369,6.471 L0.414,47.367 L1.8,51.723 L4.68,54.288 L56.331,54.567 L59.76,53.559 L62.19,49.617 L62.19,21.159 C62.19,21.159 64.512,10.8 55.431,9.963 L5.13,10.053 C5.13,10.053 1.62,9.603 0.369,6.471 Z" stroke="none" fill="#FFFFFF" fill-rule="nonzero"></path>
                            <path d="M12.168,0.306 L48.6,0.234 C50.2565047,0.245858078 51.8400342,0.91716466 53.0003601,2.09944728 C54.1606861,3.28172991 54.8021933,4.87756403 54.783,6.534 L54.7834186,9.756" stroke="#12326B" stroke-width="0.9" fill="none" stroke-linecap="square"></path>
                            <path d="M17.1,10.017 L5.4,10.017 C4.11820246,10.0098591 2.89174298,9.49380832 1.99043883,8.58237716 C1.08913468,7.670946 0.586819118,6.43879732 0.594,5.157 C0.586821478,3.87603743 1.08942236,2.64481802 1.99098327,1.73481552 C2.89254419,0.824813026 4.11902616,0.310759672 5.4,0.306 L16.524,0.306" stroke="#12326B" stroke-width="0.9" fill="none" stroke-linecap="square"></path>
                            <path d="M62.19,38.574 C62.19,38.574 50.328,38.25 49.05,37.674 L63.567,55.35 L62.19,38.574 Z" stroke="none" fill="#D0D6E1" fill-rule="nonzero"></path>
                            <path d="M62.19,38.574 L52.902,38.574 C51.3870869,38.5621207 49.9390828,37.9482857 48.8771702,36.8678023 C47.8152576,35.7873188 47.2266163,34.3288914 47.241,32.814 C47.2290181,31.3006607 47.818723,29.8445489 48.8803765,28.7660169 C49.9420301,27.687485 51.3886599,27.0748878 52.902,27.063 L62.19,27.063" stroke="#12326B" stroke-width="0.9" fill="none" stroke-linecap="square"></path>
                            <path d="M54.576,32.814 C54.5807965,33.3200398 54.3843614,33.8072565 54.0299128,34.1684565 C53.6754642,34.5296564 53.1920402,34.7352486 52.686,34.74 C52.1799598,34.7352486 51.6965358,34.5296564 51.3420872,34.1684565 C50.9876386,33.8072565 50.7912035,33.3200398 50.796,32.814 C50.7909992,31.7637242 51.6357589,30.9068965 52.686,30.897 C53.7362411,30.9068965 54.5810008,31.7637242 54.576,32.814 Z" stroke="none" fill="#12326B" fill-rule="nonzero"></path>
                            <path d="M6.732,10.035 L56.088,10.035 C57.7445047,10.0468581 59.3280342,10.7181647 60.4883601,11.9004473 C61.6486861,13.0827299 62.2901933,14.678564 62.271,16.335 L62.271,48.42 C62.2901933,50.076436 61.6486861,51.6722701 60.4883601,52.8545527 C59.3280342,54.0368353 57.7445047,54.7081419 56.088,54.72 L6.732,54.72 C5.07549528,54.7081419 3.49196583,54.0368353 2.33163988,52.8545527 C1.17131393,51.6722701 0.529806723,50.076436 0.549,48.42 L0.548581392,5.013" stroke="#12326B" stroke-width="0.9" fill="none" stroke-linecap="square"></path>
                        </g>
                    </g>
                </g>
                <path d="M31.671,20.43 L58.248,20.43 C59.9578736,20.43 61.344,21.8161264 61.344,23.526 L61.344,46.926 L28.584,46.926 L28.584,23.526 C28.5839928,21.819635 29.9646422,20.4349604 31.671,20.43 Z" id="Shape" stroke="#12326B" stroke-width="0.9" fill="#FFFFFF" fill-rule="nonzero"></path>
                <g id="Clipped" transform="translate(31.500000, 23.400000)">
                    <mask id="mask-4" fill="white">
                        <use xlink:href="#path-3"></use>
                    </mask>
                    <g id="Rectangle-path"></g>
                    <g id="Group" mask="url(#mask-4)">
                        <g transform="translate(1.800000, 1.800000)" id="Shape">
                            <path d="M21.276,13.194 L21.276,15.3 L19.152,15.3 L19.152,13.23 L12.798,13.23 L12.798,23.508 C12.798,23.607 12.798,23.706 12.798,23.805 L14.931,23.805 L14.931,17.568 C14.931,17.568 14.931,17.505 14.931,17.46 L17.019,17.46 L17.019,19.566 L23.4,19.566 L23.4,13.194 L21.276,13.194 Z" stroke="none" fill="#B7C1D2"></path>
                            <path d="M21.249,23.805 C21.249,23.202 21.249,22.608 21.249,22.005 L21.249,21.654 L23.4,21.654 L23.4,23.796 L21.249,23.805 Z" stroke="none" fill="#D0D6E1"></path>
                            <polygon stroke="none" fill="#D0D6E1" points="17.019 23.805 17.019 21.699 19.161 21.699 19.161 23.805"></polygon>
                            <path d="M0.09,0.495 L0.09,11.106 L10.683,11.106 L10.683,0.792 C10.683,0.693 10.683,0.594 10.683,0.495 L0.09,0.495 Z M8.55,9 L2.25,9 L2.25,2.7 L8.55,2.7 L8.55,9 Z" stroke="none" fill="#B7C1D2"></path>
                            <path d="M12.789,0.495 C12.789,0.594 12.789,0.693 12.789,0.792 L12.789,11.097 L23.4,11.097 L23.4,0.495 L12.789,0.495 Z M21.258,9 L14.958,9 L14.958,2.7 L21.258,2.7 L21.258,9 Z" stroke="none" fill="#B7C1D2"></path>
                            <path d="M10.683,23.508 L10.683,13.203 L0.09,13.203 L0.09,23.805 L10.692,23.805 C10.692,23.706 10.683,23.607 10.683,23.508 Z M8.541,21.654 L2.241,21.654 L2.241,15.354 L8.541,15.354 L8.541,21.654 Z" stroke="none" fill="#B7C1D2"></path>
                            <path d="M4.338,6.858 L4.338,4.743 L6.417,4.743 C6.42127513,4.79090481 6.42127513,4.83909519 6.417,4.887 C6.417,5.481 6.417,6.075 6.417,6.687 C6.417,6.759 6.336,6.876 6.3,6.876 L4.338,6.858 Z" stroke="#B7C1D2" stroke-width="0.5" fill="#B7C1D2"></path>
                            <polygon stroke="none" fill="#B7C1D2" points="17.1 4.743 19.188 4.743 19.188 6.831 17.1 6.831"></polygon>
                            <polygon stroke="#B7C1D2" stroke-width="0.5" fill="#B7C1D2" points="4.338 19.557 4.338 17.46 6.426 17.46 6.426 19.557"></polygon>
                        </g>
                    </g>
                </g>
                <path d="M21.132,46.935 L70.488,46.935 C72.1445047,46.9468581 73.7280342,47.6181647 74.8883601,48.8004473 C76.0486861,49.9827299 76.6901933,51.578564 76.671,53.235" id="Shape" stroke="#12326B" stroke-width="0.684" stroke-linecap="square"></path>
            </g>
        </g>
    </g>
</svg>